<svg width="363" height="42" viewBox="0 0 363 42" fill="none" xmlns="http://www.w3.org/2000/svg">
<path d="M30.66 41V7.285C30.66 4.865 28.57 3.325 26.645 3.325H23.235V18.505H8V7.285C8 5.14 6.405 3.325 4.26 3.325H0.575V35.94C0.575 39.24 2.61 41 5.14 41H8.055V24.83H23.235V35.94C23.235 39.24 25.435 41 27.635 41H30.66ZM61.0617 30.88V24.06C61.0617 13.83 55.1217 10.75 48.5217 10.75C40.7117 10.75 37.7417 14.71 37.7417 18.01V20.375H38.0167C39.1167 19 42.0867 16.965 47.4217 16.965C51.8217 16.965 53.8017 18.23 53.8017 22.41V22.795H51.2167C40.3267 22.795 36.4767 26.81 36.4767 32.09C36.4767 37.535 41.3167 41.495 48.3567 41.495H49.8417C56.4417 41.495 61.0617 37.15 61.0617 30.88ZM53.8567 30.935C53.8567 33.96 52.3167 35.5 49.1267 35.5C45.8817 35.5 44.0117 34.125 44.0117 31.815C44.0117 29.395 45.6067 28.075 51.2167 28.075H53.8567V30.935ZM95.728 25.545C95.728 16.8 89.953 10.64 82.418 10.64C78.403 10.64 75.873 13.005 74.388 15.15V6.515C74.388 3.05 72.408 1.4 69.548 1.4H67.018V26.535C67.018 35.445 73.398 41.66 80.988 41.66C90.008 41.66 95.728 34.455 95.728 25.545ZM88.083 26.81C88.083 31.595 85.443 35.115 81.758 35.115C77.358 35.115 74.443 32.31 74.443 25.49C74.443 20.87 77.248 17.185 80.988 17.185C85.498 17.185 88.083 19.605 88.083 26.81ZM110.515 4.865C110.515 2.5 108.535 0.574999 106.17 0.574999C103.805 0.574999 101.88 2.5 101.88 4.865C101.88 7.23 103.805 9.21 106.17 9.21C108.535 9.21 110.515 7.23 110.515 4.865ZM115.795 36.82V35.225H114.42C111.175 35.225 109.91 34.29 109.91 31.32V17.46C109.91 13.72 107.93 11.96 104.63 11.96H102.54C102.54 11.96 102.54 30.33 102.54 32.035C102.54 38.03 105.675 41.275 111.395 41.275C114.53 41.275 115.795 40.01 115.795 36.82ZM148.741 25.545C148.741 16.8 142.966 10.64 135.431 10.64C131.416 10.64 128.886 13.005 127.401 15.15V6.515C127.401 3.05 125.421 1.4 122.561 1.4H120.031V26.535C120.031 35.445 126.411 41.66 134.001 41.66C143.021 41.66 148.741 34.455 148.741 25.545ZM141.096 26.81C141.096 31.595 138.456 35.115 134.771 35.115C130.371 35.115 127.456 32.31 127.456 25.49C127.456 20.87 130.261 17.185 134.001 17.185C138.511 17.185 141.096 19.605 141.096 26.81ZM163.528 4.865C163.528 2.5 161.548 0.574999 159.183 0.574999C156.818 0.574999 154.893 2.5 154.893 4.865C154.893 7.23 156.818 9.21 159.183 9.21C161.548 9.21 163.528 7.23 163.528 4.865ZM168.808 36.82V35.225H167.433C164.188 35.225 162.923 34.29 162.923 31.32V17.46C162.923 13.72 160.943 11.96 157.643 11.96H155.553C155.553 11.96 155.553 30.33 155.553 32.035C155.553 38.03 158.688 41.275 164.408 41.275C167.543 41.275 168.808 40.01 168.808 36.82ZM215.211 32.255V26.205C215.211 24.555 213.451 22.74 211.361 22.74H207.511C207.511 22.74 208.061 25.27 208.061 28.24V31.265C208.061 33.465 207.181 34.84 203.551 34.84C196.786 34.84 191.616 31.1 191.616 21.585C191.616 14.6 196.621 9.485 203.606 9.485C207.566 9.485 211.801 10.53 214.331 12.675H214.606V10.09C214.606 6.57 211.526 2.665 204.486 2.665C191.616 2.665 183.861 11.52 183.861 22.63C183.861 34.4 192.661 41.66 202.671 41.66C212.076 41.66 215.211 37.92 215.211 32.255ZM244.377 30.88V24.06C244.377 13.83 238.437 10.75 231.837 10.75C224.027 10.75 221.057 14.71 221.057 18.01V20.375H221.332C222.432 19 225.402 16.965 230.737 16.965C235.137 16.965 237.117 18.23 237.117 22.41V22.795H234.532C223.642 22.795 219.792 26.81 219.792 32.09C219.792 37.535 224.632 41.495 231.672 41.495H233.157C239.757 41.495 244.377 37.15 244.377 30.88ZM237.172 30.935C237.172 33.96 235.632 35.5 232.442 35.5C229.197 35.5 227.327 34.125 227.327 31.815C227.327 29.395 228.922 28.075 234.532 28.075H237.172V30.935ZM267.328 18.505V15.865C267.328 13.61 265.733 11.025 261.168 11.025C253.358 11.025 250.223 16.69 250.223 22.63V36.27C250.223 39.35 252.313 41 255.613 41H257.648V23.95C257.648 19.44 259.463 17.625 262.763 17.625C264.688 17.625 265.953 18.065 267.053 18.505H267.328ZM298.114 27.305V6.405C298.114 3.435 296.574 1.4 293.054 1.4H290.799V15.315C289.644 12.73 286.399 10.64 283.429 10.64C274.794 10.64 270.064 16.965 270.064 26.7C270.064 34.84 276.059 41.66 283.869 41.66C294.044 41.66 298.114 35.94 298.114 27.305ZM290.689 26.975C290.689 32.365 288.874 35.445 284.749 35.445C280.514 35.445 277.324 31.43 277.324 25.27C277.324 20.485 279.744 16.855 283.484 16.855C287.444 16.855 290.689 19.55 290.689 26.975ZM330.302 22.135C330.302 15.04 324.582 10.64 318.422 10.64C309.952 10.64 303.902 16.855 303.902 26.755C303.902 35.83 311.107 41.66 318.477 41.66C326.617 41.66 329.202 38.745 329.202 34.95V32.64H328.927C326.562 34.84 322.932 35.445 319.852 35.445C315.507 35.445 312.097 33.08 311.547 29.34H316.387C326.177 29.34 330.302 27.58 330.302 22.135ZM323.372 21.255C323.372 23.345 321.777 24.115 314.792 24.115H311.492L311.547 23.125C311.712 19.715 314.187 16.8 317.762 16.8C321.172 16.8 323.372 18.285 323.372 21.255ZM362.071 41V23.73C362.071 15.315 356.296 10.64 349.311 10.64C340.071 10.64 335.946 17.075 335.946 23.345V36.16C335.946 38.91 337.981 41 341.116 41H343.316V23.84C343.316 19.605 345.516 17.185 348.706 17.185C352.501 17.185 354.701 19.385 354.701 24.39V36.16C354.701 38.91 356.791 41 360.091 41H362.071Z" fill="white"/>
</svg>
