<svg width="311" height="89" viewBox="0 0 311 89" fill="none" xmlns="http://www.w3.org/2000/svg">
<path d="M84.6483 21.2029C82.5517 12.9574 76.131 6.54412 67.8759 4.45C52.4138 1.96324 36.6897 1.96324 21.2276 4.45C12.9724 6.54412 6.55173 12.9574 4.45518 21.2029C1.96552 36.6471 1.96552 52.3529 4.45518 67.7971C6.55173 76.0426 12.9724 82.4559 21.2276 84.55C36.6897 87.0368 52.4138 87.0368 67.8759 84.55C76.131 82.4559 82.5517 76.0426 84.6483 67.7971C87.1379 52.3529 87.1379 36.6471 84.6483 21.2029V21.2029ZM43.6345 47.5103C39.9655 53.2691 34.9862 58.2426 29.0897 61.9074C27.1241 63.0853 24.7655 63.0853 22.8 62.0382C20.8345 60.9912 19.6552 59.0279 19.5241 56.8029C19.5241 54.5779 20.7035 52.4838 22.669 51.4368C25.6828 49.6044 28.4345 47.2485 30.6621 44.5C28.3035 41.7515 25.6828 39.5265 22.669 37.5632C19.6552 35.8618 18.7379 32.0662 20.4414 29.1868C22.1448 26.3074 26.0759 25.3912 28.9586 27.0926C34.8552 30.7574 39.7035 35.6 43.5035 41.3588C44.8138 43.1912 44.8138 45.6779 43.6345 47.5103V47.5103ZM64.469 60.2059H49.531C46.7793 60.2059 44.5517 58.8971 44.5517 56.2794C44.5517 53.6618 46.7793 52.3529 49.531 52.3529H64.469C67.2207 52.3529 69.4483 53.6618 69.4483 56.2794C69.4483 58.8971 67.2207 60.2059 64.469 60.2059V60.2059Z" fill="#206BC4"/>
<path d="M152.556 54.983V48.053C152.556 46.163 150.54 44.084 148.146 44.084H143.736C143.736 44.084 144.366 46.982 144.366 50.384V53.849C144.366 56.369 143.358 57.944 139.2 57.944C131.451 57.944 125.529 53.66 125.529 42.761C125.529 34.76 131.262 28.901 139.263 28.901C143.799 28.901 148.65 30.098 151.548 32.555H151.863V29.594C151.863 25.562 148.335 21.089 140.271 21.089C125.529 21.089 116.646 31.232 116.646 43.958C116.646 57.44 126.726 65.756 138.192 65.756C148.965 65.756 152.556 61.472 152.556 54.983ZM185.965 53.408V45.596C185.965 33.878 179.161 30.35 171.601 30.35C162.655 30.35 159.253 34.886 159.253 38.666V41.375H159.568C160.828 39.8 164.23 37.469 170.341 37.469C175.381 37.469 177.649 38.918 177.649 43.706V44.147H174.688C162.214 44.147 157.804 48.746 157.804 54.794C157.804 61.031 163.348 65.567 171.412 65.567H173.113C180.673 65.567 185.965 60.59 185.965 53.408ZM177.712 53.471C177.712 56.936 175.948 58.7 172.294 58.7C168.577 58.7 166.435 57.125 166.435 54.479C166.435 51.707 168.262 50.195 174.688 50.195H177.712V53.471ZM212.254 39.233V36.209C212.254 33.626 210.427 30.665 205.198 30.665C196.252 30.665 192.661 37.154 192.661 43.958V59.582C192.661 63.11 195.055 65 198.835 65H201.166V45.47C201.166 40.304 203.245 38.225 207.025 38.225C209.23 38.225 210.679 38.729 211.939 39.233H212.254ZM227.169 23.609C227.169 20.9 224.901 18.695 222.192 18.695C219.483 18.695 217.278 20.9 217.278 23.609C217.278 26.318 219.483 28.586 222.192 28.586C224.901 28.586 227.169 26.318 227.169 23.609ZM233.217 60.212V58.385H231.642C227.925 58.385 226.476 57.314 226.476 53.912V38.036C226.476 33.752 224.208 31.736 220.428 31.736H218.034C218.034 31.736 218.034 52.778 218.034 54.731C218.034 61.598 221.625 65.315 228.177 65.315C231.768 65.315 233.217 63.866 233.217 60.212ZM267.868 65V45.218C267.868 35.579 261.253 30.224 253.252 30.224C242.668 30.224 237.943 37.595 237.943 44.777V59.456C237.943 62.606 240.274 65 243.865 65H246.385V45.344C246.385 40.493 248.905 37.721 252.559 37.721C256.906 37.721 259.426 40.241 259.426 45.974V59.456C259.426 62.606 261.82 65 265.6 65H267.868ZM305.823 50.888V45.092C305.823 36.398 300.405 30.224 291.963 30.224C281.001 30.224 274.701 37.973 274.701 47.549C274.701 55.55 280.56 61.283 288.813 61.283C293.664 61.283 296.877 58.7 297.57 56.243V57.062C297.57 57.377 297.633 58.259 297.633 58.763C297.696 59.33 297.696 60.023 297.696 60.527C297.696 65.441 294.924 68.339 288.813 68.339C283.962 68.339 280.056 66.827 278.04 64.685H277.662V68.528C277.662 72.56 282.45 75.962 289.443 75.962C300.405 75.962 306.075 68.339 306.075 59.834C306.075 58.7 306.012 56.873 305.949 55.487C305.886 53.975 305.823 52.022 305.823 50.888ZM291.018 37.721C294.735 37.721 297.381 40.304 297.381 45.596C297.381 51.014 294.357 54.164 290.136 54.164C286.104 54.164 283.395 50.888 283.395 46.478C283.395 41.375 286.671 37.721 291.018 37.721Z" fill="#4A4A4A"/>
</svg>
