<svg width="840" height="89" viewBox="0 0 840 89" fill="none" xmlns="http://www.w3.org/2000/svg">
<path d="M84.6483 21.2029C82.5517 12.9574 76.131 6.54412 67.8758 4.45C52.4138 1.96324 36.6896 1.96324 21.2276 4.45C12.9724 6.54412 6.55171 12.9574 4.45516 21.2029C1.96551 36.6471 1.96551 52.3529 4.45516 67.7971C6.55171 76.0426 12.9724 82.4559 21.2276 84.55C36.6896 87.0368 52.4138 87.0368 67.8758 84.55C76.131 82.4559 82.5517 76.0426 84.6483 67.7971C87.1379 52.3529 87.1379 36.6471 84.6483 21.2029V21.2029ZM43.6345 47.5103C39.9655 53.2691 34.9862 58.2426 29.0896 61.9074C27.1241 63.0853 24.7655 63.0853 22.8 62.0382C20.8345 60.9912 19.6552 59.0279 19.5241 56.8029C19.5241 54.5779 20.7034 52.4838 22.669 51.4368C25.6827 49.6044 28.4345 47.2485 30.6621 44.5C28.3034 41.7515 25.6827 39.5265 22.669 37.5632C19.6552 35.8618 18.7379 32.0662 20.4414 29.1868C22.1448 26.3074 26.0758 25.3912 28.9586 27.0926C34.8552 30.7574 39.7034 35.6 43.5034 41.3588C44.8138 43.1912 44.8138 45.6779 43.6345 47.5103V47.5103ZM64.469 60.2059H49.531C46.7793 60.2059 44.5517 58.8971 44.5517 56.2794C44.5517 53.6618 46.7793 52.3529 49.531 52.3529H64.469C67.2207 52.3529 69.4483 53.6618 69.4483 56.2794C69.4483 58.8971 67.2207 60.2059 64.469 60.2059V60.2059Z" fill="#206BC4"/>
<path d="M152.556 54.983V48.053C152.556 46.163 150.54 44.084 148.146 44.084H143.736C143.736 44.084 144.366 46.982 144.366 50.384V53.849C144.366 56.369 143.358 57.944 139.2 57.944C131.451 57.944 125.529 53.66 125.529 42.761C125.529 34.76 131.262 28.901 139.263 28.901C143.799 28.901 148.65 30.098 151.548 32.555H151.863V29.594C151.863 25.562 148.335 21.089 140.271 21.089C125.529 21.089 116.646 31.232 116.646 43.958C116.646 57.44 126.726 65.756 138.192 65.756C148.965 65.756 152.556 61.472 152.556 54.983ZM185.965 53.408V45.596C185.965 33.878 179.161 30.35 171.601 30.35C162.655 30.35 159.253 34.886 159.253 38.666V41.375H159.568C160.828 39.8 164.23 37.469 170.341 37.469C175.381 37.469 177.649 38.918 177.649 43.706V44.147H174.688C162.214 44.147 157.804 48.746 157.804 54.794C157.804 61.031 163.348 65.567 171.412 65.567H173.113C180.673 65.567 185.965 60.59 185.965 53.408ZM177.712 53.471C177.712 56.936 175.948 58.7 172.294 58.7C168.577 58.7 166.435 57.125 166.435 54.479C166.435 51.707 168.262 50.195 174.688 50.195H177.712V53.471ZM212.254 39.233V36.209C212.254 33.626 210.427 30.665 205.198 30.665C196.252 30.665 192.661 37.154 192.661 43.958V59.582C192.661 63.11 195.055 65 198.835 65H201.166V45.47C201.166 40.304 203.245 38.225 207.025 38.225C209.23 38.225 210.679 38.729 211.939 39.233H212.254ZM227.169 23.609C227.169 20.9 224.901 18.695 222.192 18.695C219.483 18.695 217.278 20.9 217.278 23.609C217.278 26.318 219.483 28.586 222.192 28.586C224.901 28.586 227.169 26.318 227.169 23.609ZM233.217 60.212V58.385H231.642C227.925 58.385 226.476 57.314 226.476 53.912V38.036C226.476 33.752 224.208 31.736 220.428 31.736H218.034C218.034 31.736 218.034 52.778 218.034 54.731C218.034 61.598 221.625 65.315 228.177 65.315C231.768 65.315 233.217 63.866 233.217 60.212ZM267.868 65V45.218C267.868 35.579 261.253 30.224 253.252 30.224C242.668 30.224 237.943 37.595 237.943 44.777V59.456C237.943 62.606 240.274 65 243.865 65H246.385V45.344C246.385 40.493 248.905 37.721 252.559 37.721C256.906 37.721 259.426 40.241 259.426 45.974V59.456C259.426 62.606 261.82 65 265.6 65H267.868ZM305.823 50.888V45.092C305.823 36.398 300.405 30.224 291.963 30.224C281.001 30.224 274.701 37.973 274.701 47.549C274.701 55.55 280.56 61.283 288.813 61.283C293.664 61.283 296.877 58.7 297.57 56.243V57.062C297.57 57.377 297.633 58.259 297.633 58.763C297.696 59.33 297.696 60.023 297.696 60.527C297.696 65.441 294.924 68.339 288.813 68.339C283.962 68.339 280.056 66.827 278.04 64.685H277.662V68.528C277.662 72.56 282.45 75.962 289.443 75.962C300.405 75.962 306.075 68.339 306.075 59.834C306.075 58.7 306.012 56.873 305.949 55.487C305.886 53.975 305.823 52.022 305.823 50.888ZM291.018 37.721C294.735 37.721 297.381 40.304 297.381 45.596C297.381 51.014 294.357 54.164 290.136 54.164C286.104 54.164 283.395 50.888 283.395 46.478C283.395 41.375 286.671 37.721 291.018 37.721Z" fill="#4A4A4A"/>
<line x1="350.5" y1="14.5" x2="350.5" y2="74.5" stroke="#555555" stroke-linecap="round"/>
<path d="M390.78 59V31.448H394.266V42.998H407.076V31.448H410.604V59H407.076V46.022H394.266V59H390.78ZM422.546 59.504C420.838 59.504 419.41 59 418.262 57.992C417.142 56.984 416.582 55.556 416.582 53.708C416.582 51.468 417.576 49.76 419.564 48.584C421.552 47.38 424.73 46.54 429.098 46.064C429.098 45.42 429.028 44.79 428.888 44.174C428.776 43.558 428.566 43.012 428.258 42.536C427.95 42.06 427.516 41.682 426.956 41.402C426.424 41.094 425.738 40.94 424.898 40.94C423.722 40.94 422.616 41.164 421.58 41.612C420.544 42.06 419.62 42.564 418.808 43.124L417.464 40.73C418.416 40.114 419.578 39.526 420.95 38.966C422.322 38.378 423.834 38.084 425.486 38.084C427.978 38.084 429.784 38.854 430.904 40.394C432.024 41.906 432.584 43.936 432.584 46.484V59H429.728L429.434 56.564H429.308C428.328 57.376 427.278 58.076 426.158 58.664C425.038 59.224 423.834 59.504 422.546 59.504ZM423.554 56.732C424.534 56.732 425.458 56.508 426.326 56.06C427.194 55.584 428.118 54.898 429.098 54.002V48.332C427.39 48.556 425.948 48.822 424.772 49.13C423.624 49.438 422.686 49.802 421.958 50.222C421.258 50.642 420.74 51.132 420.404 51.692C420.096 52.224 419.942 52.812 419.942 53.456C419.942 54.632 420.292 55.472 420.992 55.976C421.692 56.48 422.546 56.732 423.554 56.732ZM448.037 59.504C447.085 59.504 446.091 59.28 445.055 58.832C444.047 58.356 443.095 57.712 442.199 56.9H442.073L441.779 59H439.007V29.096H442.451V37.244L442.367 40.94C443.291 40.128 444.299 39.456 445.391 38.924C446.483 38.364 447.603 38.084 448.751 38.084C450.067 38.084 451.229 38.336 452.237 38.84C453.245 39.316 454.085 40.016 454.757 40.94C455.457 41.836 455.975 42.928 456.311 44.216C456.675 45.476 456.857 46.89 456.857 48.458C456.857 50.194 456.619 51.748 456.143 53.12C455.667 54.492 455.023 55.654 454.211 56.606C453.399 57.558 452.461 58.286 451.397 58.79C450.333 59.266 449.213 59.504 448.037 59.504ZM447.449 56.606C448.289 56.606 449.059 56.424 449.759 56.06C450.487 55.668 451.103 55.136 451.607 54.464C452.139 53.764 452.545 52.91 452.825 51.902C453.133 50.894 453.287 49.76 453.287 48.5C453.287 47.38 453.189 46.358 452.993 45.434C452.797 44.51 452.475 43.726 452.027 43.082C451.607 42.41 451.047 41.892 450.347 41.528C449.675 41.164 448.863 40.982 447.91 40.982C446.259 40.982 444.439 41.906 442.451 43.754V54.464C443.347 55.248 444.229 55.808 445.097 56.144C445.993 56.452 446.777 56.606 447.449 56.606ZM462.221 59V38.588H465.665V59H462.221ZM463.985 34.388C463.313 34.388 462.739 34.178 462.263 33.758C461.815 33.338 461.591 32.806 461.591 32.162C461.591 31.49 461.815 30.958 462.263 30.566C462.739 30.146 463.313 29.936 463.985 29.936C464.657 29.936 465.217 30.146 465.665 30.566C466.141 30.958 466.379 31.49 466.379 32.162C466.379 32.806 466.141 33.338 465.665 33.758C465.217 34.178 464.657 34.388 463.985 34.388ZM481.587 59.504C480.635 59.504 479.641 59.28 478.605 58.832C477.597 58.356 476.645 57.712 475.749 56.9H475.623L475.329 59H472.557V29.096H476.001V37.244L475.917 40.94C476.841 40.128 477.849 39.456 478.941 38.924C480.033 38.364 481.153 38.084 482.301 38.084C483.617 38.084 484.779 38.336 485.787 38.84C486.795 39.316 487.635 40.016 488.307 40.94C489.007 41.836 489.525 42.928 489.861 44.216C490.225 45.476 490.407 46.89 490.407 48.458C490.407 50.194 490.169 51.748 489.693 53.12C489.217 54.492 488.573 55.654 487.761 56.606C486.949 57.558 486.011 58.286 484.947 58.79C483.883 59.266 482.763 59.504 481.587 59.504ZM480.999 56.606C481.839 56.606 482.609 56.424 483.309 56.06C484.037 55.668 484.653 55.136 485.157 54.464C485.689 53.764 486.095 52.91 486.375 51.902C486.683 50.894 486.837 49.76 486.837 48.5C486.837 47.38 486.739 46.358 486.543 45.434C486.347 44.51 486.025 43.726 485.577 43.082C485.157 42.41 484.597 41.892 483.897 41.528C483.225 41.164 482.413 40.982 481.461 40.982C479.809 40.982 477.989 41.906 476.001 43.754V54.464C476.897 55.248 477.779 55.808 478.647 56.144C479.543 56.452 480.327 56.606 480.999 56.606ZM495.772 59V38.588H499.216V59H495.772ZM497.536 34.388C496.864 34.388 496.29 34.178 495.814 33.758C495.366 33.338 495.142 32.806 495.142 32.162C495.142 31.49 495.366 30.958 495.814 30.566C496.29 30.146 496.864 29.936 497.536 29.936C498.208 29.936 498.768 30.146 499.216 30.566C499.692 30.958 499.93 31.49 499.93 32.162C499.93 32.806 499.692 33.338 499.216 33.758C498.768 34.178 498.208 34.388 497.536 34.388ZM525.688 59.504C523.868 59.504 522.188 59.182 520.648 58.538C519.136 57.894 517.834 56.97 516.742 55.766C515.65 54.534 514.796 53.036 514.18 51.272C513.564 49.48 513.256 47.464 513.256 45.224C513.256 43.012 513.564 41.024 514.18 39.26C514.824 37.496 515.706 35.998 516.826 34.766C517.946 33.534 519.276 32.596 520.816 31.952C522.384 31.28 524.078 30.944 525.898 30.944C526.85 30.944 527.718 31.042 528.502 31.238C529.314 31.434 530.042 31.7 530.686 32.036C531.358 32.344 531.946 32.708 532.45 33.128C532.982 33.52 533.444 33.926 533.836 34.346L531.904 36.614C531.204 35.886 530.392 35.27 529.468 34.766C528.544 34.262 527.382 34.01 525.982 34.01C524.582 34.01 523.322 34.276 522.202 34.808C521.082 35.312 520.13 36.054 519.346 37.034C518.562 37.986 517.946 39.148 517.498 40.52C517.078 41.892 516.868 43.432 516.868 45.14C516.868 46.876 517.064 48.444 517.456 49.844C517.876 51.216 518.464 52.392 519.22 53.372C520.004 54.352 520.956 55.108 522.076 55.64C523.224 56.172 524.54 56.438 526.024 56.438C527.004 56.438 527.928 56.298 528.796 56.018C529.692 55.71 530.42 55.304 530.98 54.8V47.618H525.142V44.72H534.172V56.312C533.276 57.236 532.1 58.006 530.644 58.622C529.188 59.21 527.536 59.504 525.688 59.504ZM545.142 59.504C543.434 59.504 542.006 59 540.858 57.992C539.738 56.984 539.178 55.556 539.178 53.708C539.178 51.468 540.172 49.76 542.16 48.584C544.148 47.38 547.326 46.54 551.694 46.064C551.694 45.42 551.624 44.79 551.484 44.174C551.372 43.558 551.162 43.012 550.854 42.536C550.546 42.06 550.112 41.682 549.552 41.402C549.02 41.094 548.334 40.94 547.494 40.94C546.318 40.94 545.212 41.164 544.176 41.612C543.14 42.06 542.216 42.564 541.404 43.124L540.06 40.73C541.012 40.114 542.174 39.526 543.546 38.966C544.918 38.378 546.43 38.084 548.082 38.084C550.574 38.084 552.38 38.854 553.5 40.394C554.62 41.906 555.18 43.936 555.18 46.484V59H552.324L552.03 56.564H551.904C550.924 57.376 549.874 58.076 548.754 58.664C547.634 59.224 546.43 59.504 545.142 59.504ZM546.15 56.732C547.13 56.732 548.054 56.508 548.922 56.06C549.79 55.584 550.714 54.898 551.694 54.002V48.332C549.986 48.556 548.544 48.822 547.368 49.13C546.22 49.438 545.282 49.802 544.554 50.222C543.854 50.642 543.336 51.132 543 51.692C542.692 52.224 542.538 52.812 542.538 53.456C542.538 54.632 542.888 55.472 543.588 55.976C544.288 56.48 545.142 56.732 546.15 56.732ZM561.602 59V38.588H564.458L564.752 42.284H564.878C565.578 40.996 566.418 39.974 567.398 39.218C568.406 38.462 569.498 38.084 570.674 38.084C571.486 38.084 572.214 38.224 572.858 38.504L572.186 41.528C571.85 41.416 571.542 41.332 571.262 41.276C570.982 41.22 570.632 41.192 570.212 41.192C569.344 41.192 568.434 41.542 567.482 42.242C566.558 42.942 565.746 44.16 565.046 45.896V59H561.602ZM582.725 59.504C580.149 59.504 578.091 58.58 576.551 56.732C575.039 54.884 574.283 52.252 574.283 48.836C574.283 47.184 574.521 45.7 574.997 44.384C575.501 43.04 576.159 41.906 576.971 40.982C577.783 40.058 578.721 39.344 579.785 38.84C580.849 38.336 581.969 38.084 583.145 38.084C584.321 38.084 585.343 38.294 586.211 38.714C587.079 39.134 587.961 39.708 588.857 40.436L588.689 36.95V29.096H592.175V59H589.319L589.025 56.606H588.899C588.087 57.39 587.149 58.076 586.085 58.664C585.049 59.224 583.929 59.504 582.725 59.504ZM583.481 56.606C584.433 56.606 585.329 56.382 586.169 55.934C587.009 55.458 587.849 54.744 588.689 53.792V43.124C587.821 42.34 586.981 41.794 586.169 41.486C585.385 41.15 584.573 40.982 583.733 40.982C582.921 40.982 582.151 41.178 581.423 41.57C580.723 41.934 580.107 42.466 579.575 43.166C579.043 43.838 578.623 44.65 578.315 45.602C578.007 46.554 577.853 47.618 577.853 48.794C577.853 51.258 578.343 53.176 579.323 54.548C580.303 55.92 581.689 56.606 583.481 56.606ZM607.323 59.504C605.951 59.504 604.663 59.266 603.459 58.79C602.283 58.286 601.247 57.586 600.351 56.69C599.483 55.766 598.797 54.646 598.293 53.33C597.789 52.014 597.537 50.516 597.537 48.836C597.537 47.156 597.789 45.658 598.293 44.342C598.825 42.998 599.511 41.864 600.351 40.94C601.219 40.016 602.199 39.316 603.291 38.84C604.383 38.336 605.517 38.084 606.693 38.084C607.981 38.084 609.129 38.308 610.137 38.756C611.173 39.204 612.027 39.848 612.699 40.688C613.399 41.528 613.931 42.536 614.295 43.712C614.659 44.888 614.841 46.204 614.841 47.66C614.841 48.024 614.827 48.388 614.799 48.752C614.799 49.088 614.771 49.382 614.715 49.634H600.939C601.079 51.818 601.751 53.554 602.955 54.842C604.187 56.102 605.783 56.732 607.743 56.732C608.723 56.732 609.619 56.592 610.431 56.312C611.271 56.004 612.069 55.612 612.825 55.136L614.043 57.404C613.147 57.964 612.153 58.454 611.061 58.874C609.969 59.294 608.723 59.504 607.323 59.504ZM600.897 47.156H611.817C611.817 45.084 611.369 43.516 610.473 42.452C609.605 41.36 608.373 40.814 606.777 40.814C606.049 40.814 605.349 40.954 604.677 41.234C604.033 41.514 603.445 41.934 602.913 42.494C602.381 43.026 601.933 43.684 601.569 44.468C601.233 45.252 601.009 46.148 600.897 47.156ZM619.885 59V38.588H622.741L623.035 41.528H623.161C624.141 40.548 625.163 39.736 626.227 39.092C627.319 38.42 628.579 38.084 630.007 38.084C632.163 38.084 633.731 38.756 634.711 40.1C635.719 41.444 636.223 43.432 636.223 46.064V59H632.779V46.526C632.779 44.594 632.471 43.208 631.855 42.368C631.239 41.5 630.259 41.066 628.915 41.066C627.851 41.066 626.913 41.332 626.101 41.864C625.289 42.396 624.365 43.18 623.329 44.216V59H619.885ZM651.598 59V31.448H655.798L661.09 46.148C661.426 47.1 661.748 48.066 662.056 49.046C662.392 49.998 662.728 50.95 663.064 51.902H663.232C663.568 50.95 663.876 49.998 664.156 49.046C664.464 48.066 664.786 47.1 665.122 46.148L670.33 31.448H674.572V59H671.296V43.838C671.296 42.606 671.352 41.248 671.464 39.764C671.576 38.28 671.674 36.922 671.758 35.69H671.59L669.406 41.948L664.198 56.228H661.888L656.68 41.948L654.496 35.69H654.328C654.412 36.922 654.496 38.28 654.58 39.764C654.692 41.248 654.748 42.606 654.748 43.838V59H651.598ZM689.716 59.504C688.456 59.504 687.252 59.266 686.104 58.79C684.984 58.314 683.99 57.628 683.122 56.732C682.254 55.808 681.554 54.688 681.022 53.372C680.518 52.028 680.266 50.516 680.266 48.836C680.266 47.128 680.518 45.616 681.022 44.3C681.554 42.956 682.254 41.822 683.122 40.898C683.99 39.974 684.984 39.274 686.104 38.798C687.252 38.322 688.456 38.084 689.716 38.084C690.976 38.084 692.166 38.322 693.286 38.798C694.434 39.274 695.442 39.974 696.31 40.898C697.178 41.822 697.864 42.956 698.368 44.3C698.9 45.616 699.166 47.128 699.166 48.836C699.166 50.516 698.9 52.028 698.368 53.372C697.864 54.688 697.178 55.808 696.31 56.732C695.442 57.628 694.434 58.314 693.286 58.79C692.166 59.266 690.976 59.504 689.716 59.504ZM689.716 56.648C690.584 56.648 691.382 56.466 692.11 56.102C692.838 55.71 693.454 55.178 693.958 54.506C694.49 53.806 694.896 52.98 695.176 52.028C695.456 51.076 695.596 50.012 695.596 48.836C695.596 47.66 695.456 46.596 695.176 45.644C694.896 44.664 694.49 43.824 693.958 43.124C693.454 42.424 692.838 41.892 692.11 41.528C691.382 41.136 690.584 40.94 689.716 40.94C688.848 40.94 688.05 41.136 687.322 41.528C686.594 41.892 685.964 42.424 685.432 43.124C684.928 43.824 684.536 44.664 684.256 45.644C683.976 46.596 683.836 47.66 683.836 48.836C683.836 50.012 683.976 51.076 684.256 52.028C684.536 52.98 684.928 53.806 685.432 54.506C685.964 55.178 686.594 55.71 687.322 56.102C688.05 56.466 688.848 56.648 689.716 56.648ZM704.542 59V38.588H707.398L707.692 41.528H707.818C708.798 40.548 709.82 39.736 710.884 39.092C711.976 38.42 713.236 38.084 714.664 38.084C716.82 38.084 718.388 38.756 719.368 40.1C720.376 41.444 720.88 43.432 720.88 46.064V59H717.436V46.526C717.436 44.594 717.128 43.208 716.512 42.368C715.896 41.5 714.916 41.066 713.572 41.066C712.508 41.066 711.57 41.332 710.758 41.864C709.946 42.396 709.022 43.18 707.986 44.216V59H704.542ZM727.51 59V38.588H730.954V59H727.51ZM729.274 34.388C728.602 34.388 728.028 34.178 727.552 33.758C727.104 33.338 726.88 32.806 726.88 32.162C726.88 31.49 727.104 30.958 727.552 30.566C728.028 30.146 728.602 29.936 729.274 29.936C729.946 29.936 730.506 30.146 730.954 30.566C731.43 30.958 731.668 31.49 731.668 32.162C731.668 32.806 731.43 33.338 730.954 33.758C730.506 34.178 729.946 34.388 729.274 34.388ZM744.272 59.504C743.18 59.504 742.256 59.336 741.5 59C740.772 58.664 740.17 58.202 739.694 57.614C739.246 57.026 738.924 56.312 738.728 55.472C738.532 54.632 738.434 53.708 738.434 52.7V41.402H735.41V38.798L738.602 38.588L739.022 32.876H741.92V38.588H747.422V41.402H741.92V52.742C741.92 54.002 742.144 54.982 742.592 55.682C743.068 56.354 743.894 56.69 745.07 56.69C745.434 56.69 745.826 56.634 746.246 56.522C746.666 56.41 747.044 56.284 747.38 56.144L748.052 58.748C747.492 58.944 746.876 59.112 746.204 59.252C745.56 59.42 744.916 59.504 744.272 59.504ZM759.402 59.504C758.142 59.504 756.938 59.266 755.79 58.79C754.67 58.314 753.676 57.628 752.808 56.732C751.94 55.808 751.24 54.688 750.708 53.372C750.204 52.028 749.952 50.516 749.952 48.836C749.952 47.128 750.204 45.616 750.708 44.3C751.24 42.956 751.94 41.822 752.808 40.898C753.676 39.974 754.67 39.274 755.79 38.798C756.938 38.322 758.142 38.084 759.402 38.084C760.662 38.084 761.852 38.322 762.972 38.798C764.12 39.274 765.128 39.974 765.996 40.898C766.864 41.822 767.55 42.956 768.054 44.3C768.586 45.616 768.852 47.128 768.852 48.836C768.852 50.516 768.586 52.028 768.054 53.372C767.55 54.688 766.864 55.808 765.996 56.732C765.128 57.628 764.12 58.314 762.972 58.79C761.852 59.266 760.662 59.504 759.402 59.504ZM759.402 56.648C760.27 56.648 761.068 56.466 761.796 56.102C762.524 55.71 763.14 55.178 763.644 54.506C764.176 53.806 764.582 52.98 764.862 52.028C765.142 51.076 765.282 50.012 765.282 48.836C765.282 47.66 765.142 46.596 764.862 45.644C764.582 44.664 764.176 43.824 763.644 43.124C763.14 42.424 762.524 41.892 761.796 41.528C761.068 41.136 760.27 40.94 759.402 40.94C758.534 40.94 757.736 41.136 757.008 41.528C756.28 41.892 755.65 42.424 755.118 43.124C754.614 43.824 754.222 44.664 753.942 45.644C753.662 46.596 753.522 47.66 753.522 48.836C753.522 50.012 753.662 51.076 753.942 52.028C754.222 52.98 754.614 53.806 755.118 54.506C755.65 55.178 756.28 55.71 757.008 56.102C757.736 56.466 758.534 56.648 759.402 56.648ZM774.227 59V38.588H777.083L777.377 42.284H777.503C778.203 40.996 779.043 39.974 780.023 39.218C781.031 38.462 782.123 38.084 783.299 38.084C784.111 38.084 784.839 38.224 785.483 38.504L784.811 41.528C784.475 41.416 784.167 41.332 783.887 41.276C783.607 41.22 783.257 41.192 782.837 41.192C781.969 41.192 781.059 41.542 780.107 42.242C779.183 42.942 778.371 44.16 777.671 45.896V59H774.227ZM788.788 59V38.588H792.232V59H788.788ZM790.552 34.388C789.88 34.388 789.306 34.178 788.83 33.758C788.382 33.338 788.158 32.806 788.158 32.162C788.158 31.49 788.382 30.958 788.83 30.566C789.306 30.146 789.88 29.936 790.552 29.936C791.224 29.936 791.784 30.146 792.232 30.566C792.708 30.958 792.946 31.49 792.946 32.162C792.946 32.806 792.708 33.338 792.232 33.758C791.784 34.178 791.224 34.388 790.552 34.388ZM799.124 59V38.588H801.98L802.274 41.528H802.4C803.38 40.548 804.402 39.736 805.466 39.092C806.558 38.42 807.818 38.084 809.246 38.084C811.402 38.084 812.97 38.756 813.95 40.1C814.958 41.444 815.462 43.432 815.462 46.064V59H812.018V46.526C812.018 44.594 811.71 43.208 811.094 42.368C810.478 41.5 809.498 41.066 808.154 41.066C807.09 41.066 806.152 41.332 805.34 41.864C804.528 42.396 803.604 43.18 802.568 44.216V59H799.124ZM828.98 68.408C827.72 68.408 826.572 68.282 825.536 68.03C824.5 67.806 823.604 67.456 822.848 66.98C822.12 66.504 821.546 65.93 821.126 65.258C820.734 64.586 820.538 63.802 820.538 62.906C820.538 62.038 820.804 61.212 821.336 60.428C821.868 59.644 822.596 58.93 823.52 58.286V58.118C823.016 57.81 822.582 57.39 822.218 56.858C821.882 56.298 821.714 55.612 821.714 54.8C821.714 53.932 821.952 53.176 822.428 52.532C822.904 51.888 823.408 51.384 823.94 51.02V50.852C823.268 50.292 822.652 49.55 822.092 48.626C821.56 47.674 821.294 46.582 821.294 45.35C821.294 44.23 821.49 43.222 821.882 42.326C822.302 41.43 822.862 40.674 823.562 40.058C824.262 39.414 825.074 38.924 825.998 38.588C826.95 38.252 827.944 38.084 828.98 38.084C829.54 38.084 830.058 38.14 830.534 38.252C831.038 38.336 831.486 38.448 831.878 38.588H838.976V41.234H834.776C835.252 41.71 835.644 42.312 835.952 43.04C836.288 43.768 836.456 44.566 836.456 45.434C836.456 46.526 836.26 47.52 835.868 48.416C835.476 49.284 834.944 50.026 834.272 50.642C833.6 51.23 832.802 51.692 831.878 52.028C830.982 52.364 830.016 52.532 828.98 52.532C828.476 52.532 827.958 52.476 827.426 52.364C826.894 52.224 826.39 52.042 825.914 51.818C825.55 52.126 825.242 52.476 824.99 52.868C824.738 53.232 824.612 53.694 824.612 54.254C824.612 54.898 824.864 55.43 825.368 55.85C825.872 56.27 826.824 56.48 828.224 56.48H832.172C834.552 56.48 836.33 56.872 837.506 57.656C838.71 58.412 839.312 59.644 839.312 61.352C839.312 62.304 839.074 63.2 838.598 64.04C838.122 64.908 837.436 65.664 836.54 66.308C835.644 66.952 834.552 67.456 833.264 67.82C832.004 68.212 830.576 68.408 828.98 68.408ZM828.98 50.222C829.568 50.222 830.114 50.11 830.618 49.886C831.15 49.662 831.612 49.34 832.004 48.92C832.424 48.5 832.746 47.996 832.97 47.408C833.194 46.792 833.306 46.106 833.306 45.35C833.306 43.838 832.886 42.676 832.046 41.864C831.206 41.024 830.184 40.604 828.98 40.604C827.776 40.604 826.754 41.024 825.914 41.864C825.074 42.676 824.654 43.838 824.654 45.35C824.654 46.106 824.766 46.792 824.99 47.408C825.214 47.996 825.522 48.5 825.914 48.92C826.334 49.34 826.796 49.662 827.3 49.886C827.832 50.11 828.392 50.222 828.98 50.222ZM829.484 66.014C830.464 66.014 831.346 65.888 832.13 65.636C832.942 65.412 833.628 65.104 834.188 64.712C834.748 64.348 835.182 63.914 835.49 63.41C835.798 62.906 835.952 62.388 835.952 61.856C835.952 60.904 835.602 60.246 834.902 59.882C834.202 59.518 833.18 59.336 831.836 59.336H828.308C827.916 59.336 827.482 59.308 827.006 59.252C826.558 59.224 826.11 59.14 825.662 59C824.934 59.532 824.402 60.092 824.066 60.68C823.73 61.268 823.562 61.856 823.562 62.444C823.562 63.536 824.08 64.404 825.116 65.048C826.18 65.692 827.636 66.014 829.484 66.014Z" fill="#868C97"/>
</svg>
