<svg width="2293" height="562" viewBox="0 0 2293 562" fill="none" xmlns="http://www.w3.org/2000/svg">
<path d="M883.309 342C883.309 387.6 851.309 414.8 793.309 414.8C753.709 414.8 724.109 394.4 724.109 372.4V348H726.109C737.709 358.8 765.309 368.4 790.909 368.4C817.309 368.4 830.109 360.8 830.109 344.8C830.109 332.4 822.509 326.4 785.309 321.2C739.709 314.8 717.709 296.8 717.709 264C717.709 223.6 754.109 189.2 809.309 189.2C858.109 189.2 878.109 214.4 878.109 235.2V255.6H876.109C864.909 244.4 840.109 235.6 814.509 235.6C781.709 235.6 771.309 245.6 771.309 259.6C771.309 270.4 777.709 274.8 814.509 280.8C859.309 288 883.309 307.6 883.309 342ZM926.984 202.8C926.984 181.6 930.984 173.6 942.584 160C949.784 151.6 959.384 145.2 967.784 145.2H980.184V194H1054.98V216C1054.98 227.2 1044.98 241.6 1022.98 241.6H980.184V326C980.184 354 992.584 364.8 1014.18 364.8C1031.38 364.8 1044.58 362.4 1052.98 357.2H1054.98V376.4C1054.98 398.4 1038.98 412.4 1007.78 412.4C953.384 412.4 926.984 382.8 926.984 332.4V202.8ZM1077.09 306C1077.09 241.2 1114.29 189.2 1183.89 189.2C1248.69 189.2 1285.89 241.2 1285.89 298.4C1285.89 363.2 1248.69 414.8 1179.09 414.8C1114.29 414.8 1077.09 363.2 1077.09 306ZM1230.29 306C1230.29 262.8 1214.29 237.2 1179.09 237.2C1148.29 237.2 1132.69 262.8 1132.69 298.4C1132.69 341.2 1148.29 366.8 1183.89 366.8C1215.09 366.8 1230.29 341.2 1230.29 306ZM1641.32 410H1628.12C1598.92 410 1587.32 396.4 1587.32 370.8V287.6C1587.32 252 1571.32 236.8 1547.72 236.8C1526.12 236.8 1511.32 252 1511.32 281.6V410H1496.92C1473.32 410 1457.72 396.4 1457.72 370.8V287.6C1457.72 252 1441.32 236.8 1417.72 236.8C1396.92 236.8 1381.32 253.2 1381.32 282.8V410H1366.92C1344.92 410 1328.12 395.6 1328.12 370.8V287.2C1328.12 228.4 1358.92 189.2 1424.12 189.2C1452.12 189.2 1474.12 202 1489.72 222.8C1502.12 202.8 1525.72 189.2 1551.72 189.2C1601.32 189.2 1641.32 219.2 1641.32 280.4V410ZM1862.54 336.4C1862.54 382 1828.94 413.6 1780.94 413.6H1770.14C1718.94 413.6 1683.74 384.8 1683.74 345.2C1683.74 306.8 1711.74 277.6 1790.94 277.6H1809.74V274.8C1809.74 244.4 1795.34 235.2 1763.34 235.2C1724.54 235.2 1702.94 250 1694.94 260H1692.94V242.8C1692.94 218.8 1714.54 190 1771.34 190C1819.34 190 1862.54 212.4 1862.54 286.8V336.4ZM1810.14 336.8V316H1790.94C1750.14 316 1738.54 325.6 1738.54 343.2C1738.54 360 1752.14 370 1775.74 370C1798.94 370 1810.14 358.8 1810.14 336.8ZM1907.06 202.8C1907.06 181.6 1911.06 173.6 1922.66 160C1929.86 151.6 1939.46 145.2 1947.86 145.2H1960.26V194H2035.06V216C2035.06 227.2 2025.06 241.6 2003.06 241.6H1960.26V326C1960.26 354 1972.66 364.8 1994.26 364.8C2011.46 364.8 2024.66 362.4 2033.06 357.2H2035.06V376.4C2035.06 398.4 2019.06 412.4 1987.86 412.4C1933.46 412.4 1907.06 382.8 1907.06 332.4V202.8ZM2236.37 336.4C2236.37 382 2202.77 413.6 2154.77 413.6H2143.97C2092.77 413.6 2057.57 384.8 2057.57 345.2C2057.57 306.8 2085.57 277.6 2164.77 277.6H2183.57V274.8C2183.57 244.4 2169.17 235.2 2137.17 235.2C2098.37 235.2 2076.77 250 2068.77 260H2066.77V242.8C2066.77 218.8 2088.37 190 2145.17 190C2193.17 190 2236.37 212.4 2236.37 286.8V336.4ZM2183.97 336.8V316H2164.77C2123.97 316 2112.37 325.6 2112.37 343.2C2112.37 360 2125.97 370 2149.57 370C2172.77 370 2183.97 358.8 2183.97 336.8Z" fill="white"/>
<path d="M397.945 167.392C387.778 127.359 356.641 96.2221 316.609 86.055C241.626 73.9817 165.374 73.9817 90.3915 86.055C50.3587 96.2221 19.2221 127.359 9.05504 167.392C-3.01835 242.374 -3.01835 318.626 9.05504 393.609C19.2221 433.641 50.3587 464.778 90.3915 474.945C165.374 487.018 241.626 487.018 316.609 474.945C356.641 464.778 387.778 433.641 397.945 393.609C410.018 318.626 410.018 242.374 397.945 167.392ZM199.052 295.115C181.26 323.075 157.113 347.221 128.518 365.014C118.986 370.733 107.548 370.733 98.0168 365.649C88.4852 360.566 82.7662 351.034 82.1308 340.232C82.1308 329.429 87.8497 319.262 97.3813 314.178C111.996 305.282 125.341 293.844 136.143 280.5C124.705 267.156 111.996 256.353 97.3813 246.822C82.7662 238.561 78.3181 220.133 86.5789 206.153C94.8396 192.174 113.903 187.726 127.883 195.986C156.477 213.779 179.989 237.29 198.416 265.249C204.771 274.146 204.771 286.219 199.052 295.115ZM300.087 356.753H227.647C214.303 356.753 203.5 350.399 203.5 337.69C203.5 324.981 214.303 318.626 227.647 318.626H300.087C313.431 318.626 324.234 324.981 324.234 337.69C324.234 350.399 313.431 356.753 300.087 356.753Z" fill="white"/>
</svg>
