<svg width="2153" height="562" viewBox="0 0 2153 562" fill="none" xmlns="http://www.w3.org/2000/svg">
<path d="M743.309 342C743.309 387.6 711.309 414.8 653.309 414.8C613.709 414.8 584.109 394.4 584.109 372.4V348H586.109C597.709 358.8 625.309 368.4 650.909 368.4C677.309 368.4 690.109 360.8 690.109 344.8C690.109 332.4 682.509 326.4 645.309 321.2C599.709 314.8 577.709 296.8 577.709 264C577.709 223.6 614.109 189.2 669.309 189.2C718.109 189.2 738.109 214.4 738.109 235.2V255.6H736.109C724.909 244.4 700.109 235.6 674.509 235.6C641.709 235.6 631.309 245.6 631.309 259.6C631.309 270.4 637.709 274.8 674.509 280.8C719.309 288 743.309 307.6 743.309 342ZM786.984 202.8C786.984 181.6 790.984 173.6 802.584 160C809.784 151.6 819.384 145.2 827.784 145.2H840.184V194H914.984V216C914.984 227.2 904.984 241.6 882.984 241.6H840.184V326C840.184 354 852.584 364.8 874.184 364.8C891.384 364.8 904.584 362.4 912.984 357.2H914.984V376.4C914.984 398.4 898.984 412.4 867.784 412.4C813.384 412.4 786.984 382.8 786.984 332.4V202.8ZM937.094 306C937.094 241.2 974.294 189.2 1043.89 189.2C1108.69 189.2 1145.89 241.2 1145.89 298.4C1145.89 363.2 1108.69 414.8 1039.09 414.8C974.294 414.8 937.094 363.2 937.094 306ZM1090.29 306C1090.29 262.8 1074.29 237.2 1039.09 237.2C1008.29 237.2 992.694 262.8 992.694 298.4C992.694 341.2 1008.29 366.8 1043.89 366.8C1075.09 366.8 1090.29 341.2 1090.29 306ZM1501.32 410H1488.12C1458.92 410 1447.32 396.4 1447.32 370.8V287.6C1447.32 252 1431.32 236.8 1407.72 236.8C1386.12 236.8 1371.32 252 1371.32 281.6V410H1356.92C1333.32 410 1317.72 396.4 1317.72 370.8V287.6C1317.72 252 1301.32 236.8 1277.72 236.8C1256.92 236.8 1241.32 253.2 1241.32 282.8V410H1226.92C1204.92 410 1188.12 395.6 1188.12 370.8V287.2C1188.12 228.4 1218.92 189.2 1284.12 189.2C1312.12 189.2 1334.12 202 1349.72 222.8C1362.12 202.8 1385.72 189.2 1411.72 189.2C1461.32 189.2 1501.32 219.2 1501.32 280.4V410ZM1722.54 336.4C1722.54 382 1688.94 413.6 1640.94 413.6H1630.14C1578.94 413.6 1543.74 384.8 1543.74 345.2C1543.74 306.8 1571.74 277.6 1650.94 277.6H1669.74V274.8C1669.74 244.4 1655.34 235.2 1623.34 235.2C1584.54 235.2 1562.94 250 1554.94 260H1552.94V242.8C1552.94 218.8 1574.54 190 1631.34 190C1679.34 190 1722.54 212.4 1722.54 286.8V336.4ZM1670.14 336.8V316H1650.94C1610.14 316 1598.54 325.6 1598.54 343.2C1598.54 360 1612.14 370 1635.74 370C1658.94 370 1670.14 358.8 1670.14 336.8ZM1767.06 202.8C1767.06 181.6 1771.06 173.6 1782.66 160C1789.86 151.6 1799.46 145.2 1807.86 145.2H1820.26V194H1895.06V216C1895.06 227.2 1885.06 241.6 1863.06 241.6H1820.26V326C1820.26 354 1832.66 364.8 1854.26 364.8C1871.46 364.8 1884.66 362.4 1893.06 357.2H1895.06V376.4C1895.06 398.4 1879.06 412.4 1847.86 412.4C1793.46 412.4 1767.06 382.8 1767.06 332.4V202.8ZM2096.37 336.4C2096.37 382 2062.77 413.6 2014.77 413.6H2003.97C1952.77 413.6 1917.57 384.8 1917.57 345.2C1917.57 306.8 1945.57 277.6 2024.77 277.6H2043.57V274.8C2043.57 244.4 2029.17 235.2 1997.17 235.2C1958.37 235.2 1936.77 250 1928.77 260H1926.77V242.8C1926.77 218.8 1948.37 190 2005.17 190C2053.17 190 2096.37 212.4 2096.37 286.8V336.4ZM2043.97 336.8V316H2024.77C1983.97 316 1972.37 325.6 1972.37 343.2C1972.37 360 1985.97 370 2009.57 370C2032.77 370 2043.97 358.8 2043.97 336.8Z" fill="white"/>
<path d="M397.945 167.392C387.778 127.359 356.641 96.2221 316.609 86.055C241.626 73.9817 165.374 73.9817 90.3915 86.055C50.3587 96.2221 19.2221 127.359 9.05504 167.392C-3.01835 242.374 -3.01835 318.626 9.05504 393.609C19.2221 433.641 50.3587 464.778 90.3915 474.945C165.374 487.018 241.626 487.018 316.609 474.945C356.641 464.778 387.778 433.641 397.945 393.609C410.018 318.626 410.018 242.374 397.945 167.392ZM199.052 295.115C181.26 323.075 157.113 347.221 128.518 365.014C118.986 370.733 107.548 370.733 98.0168 365.649C88.4852 360.566 82.7662 351.034 82.1308 340.232C82.1308 329.429 87.8497 319.262 97.3813 314.178C111.996 305.282 125.341 293.844 136.143 280.5C124.705 267.156 111.996 256.353 97.3813 246.822C82.7662 238.561 78.3181 220.133 86.5789 206.153C94.8396 192.174 113.903 187.726 127.883 195.986C156.477 213.779 179.989 237.29 198.416 265.249C204.771 274.146 204.771 286.219 199.052 295.115ZM300.087 356.753H227.647C214.303 356.753 203.5 350.399 203.5 337.69C203.5 324.981 214.303 318.626 227.647 318.626H300.087C313.431 318.626 324.234 324.981 324.234 337.69C324.234 350.399 313.431 356.753 300.087 356.753Z" fill="white"/>
</svg>
