<svg width="2449" height="492" viewBox="0 0 2449 492" fill="none" xmlns="http://www.w3.org/2000/svg">
<path d="M684.756 242V65.456C684.756 52.784 673.812 44.72 663.732 44.72H645.876V124.208H566.1V65.456C566.1 54.224 557.748 44.72 546.516 44.72H527.22V215.504C527.22 232.784 537.876 242 551.124 242H566.388V157.328H645.876V215.504C645.876 232.784 657.396 242 668.916 242H684.756ZM843.95 189.008V153.296C843.95 99.728 812.846 83.6 778.286 83.6C737.39 83.6 721.838 104.336 721.838 121.616V134H723.278C729.038 126.8 744.59 116.144 772.526 116.144C795.566 116.144 805.934 122.768 805.934 144.656V146.672H792.398C735.374 146.672 715.214 167.696 715.214 195.344C715.214 223.856 740.558 244.592 777.422 244.592H785.198C819.758 244.592 843.95 221.84 843.95 189.008ZM806.222 189.296C806.222 205.136 798.158 213.2 781.454 213.2C764.462 213.2 754.67 206 754.67 193.904C754.67 181.232 763.022 174.32 792.398 174.32H806.222V189.296ZM1025.48 161.072C1025.48 115.28 995.236 83.024 955.78 83.024C934.756 83.024 921.508 95.408 913.732 106.64V61.424C913.732 43.28 903.364 34.64 888.388 34.64H875.14V166.256C875.14 212.912 908.548 245.456 948.292 245.456C995.524 245.456 1025.48 207.728 1025.48 161.072ZM985.444 167.696C985.444 192.752 971.62 211.184 952.324 211.184C929.284 211.184 914.02 196.496 914.02 160.784C914.02 136.592 928.708 117.296 948.292 117.296C971.908 117.296 985.444 129.968 985.444 167.696ZM1102.91 52.784C1102.91 40.4 1092.54 30.32 1080.16 30.32C1067.77 30.32 1057.69 40.4 1057.69 52.784C1057.69 65.168 1067.77 75.536 1080.16 75.536C1092.54 75.536 1102.91 65.168 1102.91 52.784ZM1130.56 220.112V211.76H1123.36C1106.36 211.76 1099.74 206.864 1099.74 191.312V118.736C1099.74 99.152 1089.37 89.936 1072.09 89.936H1061.15C1061.15 89.936 1061.15 186.128 1061.15 195.056C1061.15 226.448 1077.56 243.44 1107.52 243.44C1123.93 243.44 1130.56 236.816 1130.56 220.112ZM1303.07 161.072C1303.07 115.28 1272.83 83.024 1233.37 83.024C1212.35 83.024 1199.1 95.408 1191.33 106.64V61.424C1191.33 43.28 1180.96 34.64 1165.98 34.64H1152.73V166.256C1152.73 212.912 1186.14 245.456 1225.89 245.456C1273.12 245.456 1303.07 207.728 1303.07 161.072ZM1263.04 167.696C1263.04 192.752 1249.21 211.184 1229.92 211.184C1206.88 211.184 1191.61 196.496 1191.61 160.784C1191.61 136.592 1206.3 117.296 1225.89 117.296C1249.5 117.296 1263.04 129.968 1263.04 167.696ZM1380.5 52.784C1380.5 40.4 1370.13 30.32 1357.75 30.32C1345.37 30.32 1335.29 40.4 1335.29 52.784C1335.29 65.168 1345.37 75.536 1357.75 75.536C1370.13 75.536 1380.5 65.168 1380.5 52.784ZM1408.15 220.112V211.76H1400.95C1383.96 211.76 1377.33 206.864 1377.33 191.312V118.736C1377.33 99.152 1366.97 89.936 1349.69 89.936H1338.74C1338.74 89.936 1338.74 186.128 1338.74 195.056C1338.74 226.448 1355.16 243.44 1385.11 243.44C1401.53 243.44 1408.15 236.816 1408.15 220.112ZM1651.13 196.208V164.528C1651.13 155.888 1641.92 146.384 1630.97 146.384H1610.81C1610.81 146.384 1613.69 159.632 1613.69 175.184V191.024C1613.69 202.544 1609.08 209.744 1590.08 209.744C1554.65 209.744 1527.58 190.16 1527.58 140.336C1527.58 103.76 1553.79 76.976 1590.36 76.976C1611.1 76.976 1633.28 82.448 1646.52 93.68H1647.96V80.144C1647.96 61.712 1631.84 41.264 1594.97 41.264C1527.58 41.264 1486.97 87.632 1486.97 145.808C1486.97 207.44 1533.05 245.456 1585.47 245.456C1634.72 245.456 1651.13 225.872 1651.13 196.208ZM1803.86 189.008V153.296C1803.86 99.728 1772.75 83.6 1738.19 83.6C1697.3 83.6 1681.74 104.336 1681.74 121.616V134H1683.18C1688.94 126.8 1704.5 116.144 1732.43 116.144C1755.47 116.144 1765.84 122.768 1765.84 144.656V146.672H1752.3C1695.28 146.672 1675.12 167.696 1675.12 195.344C1675.12 223.856 1700.46 244.592 1737.33 244.592H1745.1C1779.66 244.592 1803.86 221.84 1803.86 189.008ZM1766.13 189.296C1766.13 205.136 1758.06 213.2 1741.36 213.2C1724.37 213.2 1714.58 206 1714.58 193.904C1714.58 181.232 1722.93 174.32 1752.3 174.32H1766.13V189.296ZM1924.04 124.208V110.384C1924.04 98.576 1915.69 85.04 1891.78 85.04C1850.89 85.04 1834.47 114.704 1834.47 145.808V217.232C1834.47 233.36 1845.41 242 1862.69 242H1873.35V152.72C1873.35 129.104 1882.85 119.6 1900.13 119.6C1910.21 119.6 1916.84 121.904 1922.6 124.208H1924.04ZM2085.24 170.288V60.848C2085.24 45.296 2077.18 34.64 2058.75 34.64H2046.94V107.504C2040.89 93.968 2023.9 83.024 2008.35 83.024C1963.13 83.024 1938.36 116.144 1938.36 167.12C1938.36 209.744 1969.76 245.456 2010.65 245.456C2063.93 245.456 2085.24 215.504 2085.24 170.288ZM2046.36 168.56C2046.36 196.784 2036.86 212.912 2015.26 212.912C1993.08 212.912 1976.38 191.888 1976.38 159.632C1976.38 134.576 1989.05 115.568 2008.64 115.568C2029.37 115.568 2046.36 129.68 2046.36 168.56ZM2253.79 143.216C2253.79 106.064 2223.84 83.024 2191.58 83.024C2147.23 83.024 2115.55 115.568 2115.55 167.408C2115.55 214.928 2153.28 245.456 2191.87 245.456C2234.5 245.456 2248.03 230.192 2248.03 210.32V198.224H2246.59C2234.21 209.744 2215.2 212.912 2199.07 212.912C2176.32 212.912 2158.46 200.528 2155.58 180.944H2180.93C2232.19 180.944 2253.79 171.728 2253.79 143.216ZM2217.5 138.608C2217.5 149.552 2209.15 153.584 2172.58 153.584H2155.3L2155.58 148.4C2156.45 130.544 2169.41 115.28 2188.13 115.28C2205.98 115.28 2217.5 123.056 2217.5 138.608ZM2420.15 242V151.568C2420.15 107.504 2389.91 83.024 2353.33 83.024C2304.95 83.024 2283.35 116.72 2283.35 149.552V216.656C2283.35 231.056 2294 242 2310.42 242H2321.94V152.144C2321.94 129.968 2333.46 117.296 2350.16 117.296C2370.03 117.296 2381.55 128.816 2381.55 155.024V216.656C2381.55 231.056 2392.5 242 2409.78 242H2420.15Z" fill="black"/>
<path d="M527.8 289.6H564.1C572.6 289.6 580.25 290.9 587.05 293.5C593.85 296.1 599.65 299.8 604.45 304.6C609.25 309.3 612.9 314.95 615.4 321.55C618 328.15 619.3 335.4 619.3 343.3C619.3 351.3 618 358.6 615.4 365.2C612.9 371.8 609.25 377.45 604.45 382.15C599.65 386.85 593.85 390.5 587.05 393.1C580.25 395.7 572.6 397 564.1 397H527.8V289.6ZM563.2 377.8C569.1 377.8 574.3 377 578.8 375.4C583.3 373.7 587.05 371.35 590.05 368.35C593.05 365.35 595.3 361.75 596.8 357.55C598.3 353.25 599.05 348.5 599.05 343.3C599.05 338.1 598.3 333.4 596.8 329.2C595.3 324.9 593.05 321.25 590.05 318.25C587.05 315.25 583.3 312.95 578.8 311.35C574.3 309.65 569.1 308.8 563.2 308.8H548.05V377.8H563.2ZM678.513 389.2H677.313C675.013 392 672.213 394.4 668.912 396.4C665.713 398.4 661.563 399.4 656.463 399.4C652.663 399.4 649.063 398.75 645.663 397.45C642.363 396.25 639.463 394.55 636.963 392.35C634.463 390.15 632.513 387.5 631.113 384.4C629.713 381.3 629.013 377.9 629.013 374.2C629.013 370.4 629.763 367 631.263 364C632.763 360.9 634.863 358.25 637.563 356.05C640.263 353.85 643.413 352.2 647.013 351.1C650.713 349.9 654.713 349.3 659.013 349.3C663.813 349.3 667.763 349.7 670.863 350.5C673.963 351.2 676.513 351.95 678.513 352.75V350.5C678.513 346.6 676.963 343.4 673.863 340.9C670.763 338.3 666.913 337 662.312 337C655.513 337 649.763 339.85 645.063 345.55L630.813 335.8C638.613 326 649.263 321.1 662.763 321.1C674.163 321.1 682.863 323.8 688.863 329.2C694.863 334.5 697.863 342.4 697.863 352.9V397H678.513V389.2ZM678.513 367.15C676.213 366.05 673.813 365.2 671.313 364.6C668.913 363.9 666.263 363.55 663.362 363.55C658.663 363.55 655.013 364.6 652.413 366.7C649.913 368.7 648.663 371.2 648.663 374.2C648.663 377.2 649.863 379.6 652.263 381.4C654.763 383.2 657.613 384.1 660.813 384.1C663.413 384.1 665.813 383.65 668.013 382.75C670.213 381.75 672.063 380.5 673.563 379C675.163 377.4 676.363 375.6 677.163 373.6C678.063 371.5 678.513 369.35 678.513 367.15ZM741.854 399.4C737.054 399.4 732.754 398.8 728.954 397.6C725.254 396.4 722.004 394.85 719.204 392.95C716.504 390.95 714.204 388.7 712.304 386.2C710.404 383.6 708.954 381 707.954 378.4L725.504 370.9C727.204 374.7 729.454 377.55 732.254 379.45C735.154 381.25 738.354 382.15 741.854 382.15C745.454 382.15 748.304 381.5 750.404 380.2C752.504 378.9 753.554 377.35 753.554 375.55C753.554 373.55 752.654 371.95 750.854 370.75C749.154 369.45 746.154 368.3 741.854 367.3L731.504 365.05C729.204 364.55 726.804 363.75 724.304 362.65C721.904 361.55 719.704 360.15 717.704 358.45C715.704 356.75 714.054 354.7 712.754 352.3C711.454 349.9 710.804 347.1 710.804 343.9C710.804 340.3 711.554 337.1 713.054 334.3C714.654 331.5 716.804 329.15 719.504 327.25C722.204 325.25 725.354 323.75 728.954 322.75C732.654 321.65 736.604 321.1 740.804 321.1C747.804 321.1 754.054 322.5 759.554 325.3C765.054 328 769.104 332.35 771.704 338.35L754.754 345.25C753.354 342.35 751.304 340.25 748.604 338.95C745.904 337.65 743.204 337 740.504 337C737.704 337 735.254 337.6 733.154 338.8C731.054 339.9 730.004 341.35 730.004 343.15C730.004 344.85 730.854 346.2 732.554 347.2C734.354 348.2 736.754 349.1 739.754 349.9L751.004 352.6C758.504 354.4 764.054 357.3 767.654 361.3C771.354 365.2 773.204 369.85 773.204 375.25C773.204 378.45 772.454 381.5 770.954 384.4C769.454 387.3 767.304 389.9 764.504 392.2C761.804 394.4 758.504 396.15 754.604 397.45C750.804 398.75 746.554 399.4 741.854 399.4ZM785.263 289.6H804.913V319.75L803.713 333.1H804.913C807.013 329.6 810.013 326.75 813.913 324.55C817.913 322.25 822.363 321.1 827.263 321.1C836.763 321.1 843.763 323.9 848.263 329.5C852.863 335.1 855.163 342.75 855.163 352.45V397H835.513V354.85C835.513 349.75 834.313 345.9 831.913 343.3C829.513 340.6 826.163 339.25 821.863 339.25C819.163 339.25 816.763 339.85 814.663 341.05C812.563 342.15 810.763 343.7 809.263 345.7C807.863 347.7 806.763 350.05 805.963 352.75C805.263 355.35 804.913 358.15 804.913 361.15V397H785.263V289.6ZM871.396 289.6H891.046V321.85L889.846 332.35H891.046C892.846 329.25 895.646 326.6 899.446 324.4C903.246 322.2 907.946 321.1 913.546 321.1C918.246 321.1 922.696 322.1 926.896 324.1C931.196 326 934.946 328.7 938.146 332.2C941.446 335.6 944.046 339.7 945.946 344.5C947.846 349.3 948.796 354.55 948.796 360.25C948.796 365.95 947.846 371.2 945.946 376C944.046 380.8 941.446 384.95 938.146 388.45C934.946 391.85 931.196 394.55 926.896 396.55C922.696 398.45 918.246 399.4 913.546 399.4C907.946 399.4 903.246 398.3 899.446 396.1C895.646 393.9 892.846 391.25 891.046 388.15H889.846V397H871.396V289.6ZM909.496 381.25C912.096 381.25 914.546 380.75 916.846 379.75C919.246 378.75 921.346 377.35 923.146 375.55C924.946 373.75 926.396 371.55 927.496 368.95C928.596 366.35 929.146 363.45 929.146 360.25C929.146 357.05 928.596 354.15 927.496 351.55C926.396 348.95 924.946 346.75 923.146 344.95C921.346 343.15 919.246 341.75 916.846 340.75C914.546 339.75 912.096 339.25 909.496 339.25C906.896 339.25 904.396 339.75 901.996 340.75C899.696 341.65 897.646 343 895.846 344.8C894.046 346.6 892.596 348.8 891.496 351.4C890.396 354 889.846 356.95 889.846 360.25C889.846 363.55 890.396 366.5 891.496 369.1C892.596 371.7 894.046 373.9 895.846 375.7C897.646 377.5 899.696 378.9 901.996 379.9C904.396 380.8 906.896 381.25 909.496 381.25ZM996.138 321.1C1001.84 321.1 1007.04 322.1 1011.74 324.1C1016.54 326 1020.64 328.7 1024.04 332.2C1027.54 335.6 1030.24 339.7 1032.14 344.5C1034.14 349.3 1035.14 354.55 1035.14 360.25C1035.14 365.95 1034.14 371.2 1032.14 376C1030.24 380.8 1027.54 384.95 1024.04 388.45C1020.64 391.85 1016.54 394.55 1011.74 396.55C1007.04 398.45 1001.84 399.4 996.138 399.4C990.438 399.4 985.188 398.45 980.388 396.55C975.688 394.55 971.588 391.85 968.088 388.45C964.688 384.95 961.988 380.8 959.988 376C958.088 371.2 957.138 365.95 957.138 360.25C957.138 354.55 958.088 349.3 959.988 344.5C961.988 339.7 964.688 335.6 968.088 332.2C971.588 328.7 975.688 326 980.388 324.1C985.188 322.1 990.438 321.1 996.138 321.1ZM996.138 381.25C998.638 381.25 1001.04 380.8 1003.34 379.9C1005.74 378.9 1007.84 377.5 1009.64 375.7C1011.44 373.9 1012.84 371.7 1013.84 369.1C1014.94 366.5 1015.49 363.55 1015.49 360.25C1015.49 356.95 1014.94 354 1013.84 351.4C1012.84 348.8 1011.44 346.6 1009.64 344.8C1007.84 343 1005.74 341.65 1003.34 340.75C1001.04 339.75 998.638 339.25 996.138 339.25C993.538 339.25 991.088 339.75 988.788 340.75C986.488 341.65 984.438 343 982.638 344.8C980.838 346.6 979.388 348.8 978.288 351.4C977.288 354 976.788 356.95 976.788 360.25C976.788 363.55 977.288 366.5 978.288 369.1C979.388 371.7 980.838 373.9 982.638 375.7C984.438 377.5 986.488 378.9 988.788 379.9C991.088 380.8 993.538 381.25 996.138 381.25ZM1093.06 389.2H1091.86C1089.56 392 1086.76 394.4 1083.46 396.4C1080.26 398.4 1076.11 399.4 1071.01 399.4C1067.21 399.4 1063.61 398.75 1060.21 397.45C1056.91 396.25 1054.01 394.55 1051.51 392.35C1049.01 390.15 1047.06 387.5 1045.66 384.4C1044.26 381.3 1043.56 377.9 1043.56 374.2C1043.56 370.4 1044.31 367 1045.81 364C1047.31 360.9 1049.41 358.25 1052.11 356.05C1054.81 353.85 1057.96 352.2 1061.56 351.1C1065.26 349.9 1069.26 349.3 1073.56 349.3C1078.36 349.3 1082.31 349.7 1085.41 350.5C1088.51 351.2 1091.06 351.95 1093.06 352.75V350.5C1093.06 346.6 1091.51 343.4 1088.41 340.9C1085.31 338.3 1081.46 337 1076.86 337C1070.06 337 1064.31 339.85 1059.61 345.55L1045.36 335.8C1053.16 326 1063.81 321.1 1077.31 321.1C1088.71 321.1 1097.41 323.8 1103.41 329.2C1109.41 334.5 1112.41 342.4 1112.41 352.9V397H1093.06V389.2ZM1093.06 367.15C1090.76 366.05 1088.36 365.2 1085.86 364.6C1083.46 363.9 1080.81 363.55 1077.91 363.55C1073.21 363.55 1069.56 364.6 1066.96 366.7C1064.46 368.7 1063.21 371.2 1063.21 374.2C1063.21 377.2 1064.41 379.6 1066.81 381.4C1069.31 383.2 1072.16 384.1 1075.36 384.1C1077.96 384.1 1080.36 383.65 1082.56 382.75C1084.76 381.75 1086.61 380.5 1088.11 379C1089.71 377.4 1090.91 375.6 1091.71 373.6C1092.61 371.5 1093.06 369.35 1093.06 367.15ZM1128.04 323.5H1146.49V333.7H1147.69C1148.59 331.9 1149.79 330.25 1151.29 328.75C1152.79 327.25 1154.44 325.95 1156.24 324.85C1158.14 323.75 1160.14 322.9 1162.24 322.3C1164.44 321.7 1166.59 321.4 1168.69 321.4C1171.29 321.4 1173.49 321.65 1175.29 322.15C1177.19 322.65 1178.79 323.3 1180.09 324.1L1174.84 341.95C1173.64 341.35 1172.29 340.9 1170.79 340.6C1169.39 340.2 1167.64 340 1165.54 340C1162.84 340 1160.39 340.55 1158.19 341.65C1155.99 342.65 1154.09 344.1 1152.49 346C1150.99 347.9 1149.79 350.15 1148.89 352.75C1148.09 355.25 1147.69 358 1147.69 361V397H1128.04V323.5ZM1239.33 388.15H1238.13C1236.33 391.25 1233.53 393.9 1229.73 396.1C1225.93 398.3 1221.23 399.4 1215.63 399.4C1210.93 399.4 1206.43 398.45 1202.13 396.55C1197.93 394.55 1194.18 391.85 1190.88 388.45C1187.68 384.95 1185.13 380.8 1183.23 376C1181.33 371.2 1180.38 365.95 1180.38 360.25C1180.38 354.55 1181.33 349.3 1183.23 344.5C1185.13 339.7 1187.68 335.6 1190.88 332.2C1194.18 328.7 1197.93 326 1202.13 324.1C1206.43 322.1 1210.93 321.1 1215.63 321.1C1221.23 321.1 1225.93 322.2 1229.73 324.4C1233.53 326.6 1236.33 329.25 1238.13 332.35H1239.33L1238.13 321.85V289.6H1257.78V397H1239.33V388.15ZM1219.68 381.25C1222.28 381.25 1224.73 380.8 1227.03 379.9C1229.43 378.9 1231.53 377.5 1233.33 375.7C1235.13 373.9 1236.58 371.7 1237.68 369.1C1238.78 366.5 1239.33 363.55 1239.33 360.25C1239.33 356.95 1238.78 354 1237.68 351.4C1236.58 348.8 1235.13 346.6 1233.33 344.8C1231.53 343 1229.43 341.65 1227.03 340.75C1224.73 339.75 1222.28 339.25 1219.68 339.25C1217.08 339.25 1214.58 339.75 1212.18 340.75C1209.88 341.75 1207.83 343.15 1206.03 344.95C1204.23 346.75 1202.78 348.95 1201.68 351.55C1200.58 354.15 1200.03 357.05 1200.03 360.25C1200.03 363.45 1200.58 366.35 1201.68 368.95C1202.78 371.55 1204.23 373.75 1206.03 375.55C1207.83 377.35 1209.88 378.75 1212.18 379.75C1214.58 380.75 1217.08 381.25 1219.68 381.25Z" fill="black"/>
<path d="M392.216 103.115C382.195 63.6478 351.507 32.9507 312.051 22.9272C238.148 11.0243 162.993 11.0243 89.0902 22.9272C49.6337 32.9507 18.9454 63.6478 8.92468 103.115C-2.97489 177.039 -2.97489 252.215 8.92468 326.139C18.9454 365.607 49.6337 396.304 89.0902 406.327C162.993 418.23 238.148 418.23 312.051 406.327C351.507 396.304 382.195 365.607 392.216 326.139C404.116 252.215 404.116 177.039 392.216 103.115V103.115ZM196.186 229.036C178.65 256.601 154.851 280.407 126.668 297.948C117.273 303.586 106 303.586 96.6057 298.574C87.2113 293.563 81.5747 284.165 80.9484 273.515C80.9484 262.865 86.585 252.842 95.9794 247.83C110.384 239.06 123.536 227.783 134.183 214.627C122.91 201.471 110.384 190.821 95.9794 181.424C81.5747 173.28 77.1906 155.112 85.3324 141.33C93.4743 127.548 112.263 123.163 126.041 131.307C154.225 148.848 177.398 172.027 195.56 199.592C201.823 208.363 201.823 220.265 196.186 229.036V229.036ZM295.767 289.804H224.37C211.217 289.804 200.57 283.539 200.57 271.01C200.57 258.48 211.217 252.215 224.37 252.215H295.767C308.919 252.215 319.566 258.48 319.566 271.01C319.566 283.539 308.919 289.804 295.767 289.804V289.804Z" fill="#206BC4"/>
</svg>
